#!OML:ASF E:\Mandelcareful walks\Project 1\Capture day 1\Session 1\Subject1.ASF
:FULLY-SPECIFIED
:DEGREES
677
root 6.8867 16.0254 -1.80596 -125.107 -82.99 131.068
lowerback 30.9294 1.74655 -2.58504
upperback 6.86417 0.602602 -0.967616
thorax -9.23149 0.0377468 0.22208
lowerneck -29.0479 3.09725 -1.52258
upperneck 30.2501 6.81615 -5.06694
head 15.7526 1.72222 -0.474579
rclavicle -2.98177e-015 4.37326e-015
rhumerus -24.9731 -1.43547 -86.9955
rradius 79.6038
rwrist -17.0536
rhand -13.3079 -27.0588
rfingers 7.12502
rthumb 12.7964 -56.6466
lclavicle -2.98177e-015 4.37326e-015
lhumerus -10.4216 -16.2036 89.6987
lradius 74.7414
lwrist 12.9448
lhand -25.4391 -16.0857
lfingers 7.12502
lthumb 1.08752 13.8912
rfemur -29.3485 -11.5254 5.88363
rtibia 46.0979
rfoot -17.2195 -5.79725
rtoes -9.04406
lfemur -31.3952 10.733 -15.1294
ltibia 45.0002
lfoot -14.9443 6.08505
ltoes -1.63157
678
root 6.9036 16.0154 -1.84895 -123.674 -82.9719 129.683
lowerback 30.8946 1.65573 -2.62159
upperback 6.90057 0.482868 -0.914586
thorax -9.17123 -0.018082 0.34894
lowerneck -29.1499 3.19931 -1.37371
upperneck 30.3925 6.97815 -5.26588
head 15.8655 1.76526 -0.550237
rclavicle -9.93923e-016 -1.59028e-015
rhumerus -24.9236 -1.21167 -86.9053
rradius 79.5879
rwrist -17.1025
rhand -13.2907 -26.7094
rfingers 7.12502
rthumb 12.8129 -56.2962
lclavicle -9.93923e-016 -1.59028e-015
lhumerus -10.3028 -16.0197 89.6934
lradius 74.6559
lwrist 12.8597
lhand -25.421 -16.179
lfingers 7.12502
lthumb 1.10499 13.7979
rfemur -29.5974 -11.7363 5.97947
rtibia 46.3686
rfoot -17.292 -5.83937
rtoes -9.19178
lfemur -31.4872 10.7952 -15.1304
ltibia 44.8983
lfoot -14.7321 5.922
ltoes -1.99501
679
root 6.91938 16.0056 -1.88989 -122.394 -82.8153 128.456
lowerback 31.0159 1.62185 -2.7562
upperback 6.78588 0.400054 -0.91375
thorax -9.35998 -0.0475772 0.457082
lowerneck -29.0494 3.2828 -1.23812
upperneck 30.5605 7.06979 -5.36045
head 15.9378 1.79678 -0.597131
rclavicle -8.15017e-015 1.15295e-014
rhumerus -25.2586 -1.05113 -86.8496
rradius 79.785
rwrist -17.1285
rhand -13.3525 -26.4792
rfingers 7.12502
rthumb 12.7534 -56.0697
lclavicle -8.15017e-015 1.15295e-014
lhumerus -10.4561 -15.9353 89.7459
lradius 74.6252
lwrist 12.8127
lhand -25.3644 -16.0017
lfingers 7.12502
lthumb 1.15965 13.9749
rfemur -29.8788 -11.9577 5.93255
rtibia 46.6608
rfoot -17.4156 -5.61202
rtoes -8.44584
lfemur -31.5638 10.9029 -15.2486
ltibia 44.8137
lfoot -14.6371 5.76323
ltoes -2.45094
680
root 6.92077 16.0026 -1.93105 -122.098 -82.6752 128.119
lowerback 31.1201 1.62574 -2.76102
upperback 6.7194 0.39679 -0.955321
thorax -9.4861 -0.0461316 0.412703
lowerneck -29.052 3.36657 -1.10354
upperneck 30.8118 7.15658 -5.40733
head 16.0702 1.82811 -0.624479
rclavicle 9.93923e-016 1.51076e-014
rhumerus -25.6133 -1.06184 -86.8515
rradius 80.0828
rwrist -17.1835
rhand -13.2834 -26.8835
rfingers 7.12502
rthumb 12.82 -56.4698
lclavicle 9.93923e-016 1.51076e-014
lhumerus -10.6015 -16.0469 89.718
lradius 74.6198
lwrist 12.8404
lhand -25.2966 -15.6062
lfingers 7.12502
lthumb 1.22515 14.37
rfemur -29.9886 -12.0821 5.93642
rtibia 46.9877
rfoot -17.6379 -5.34162
rtoes -7.85097
lfemur -31.4371 11.0964 -15.2594
ltibia 44.7141
lfoot -14.6167 5.61062
ltoes -2.80982
681
root 6.91308 16.0022 -1.96824 -121.248 -82.6059 127.185
lowerback 30.9157 1.55589 -2.69438
upperback 6.90163 0.324085 -0.985499
thorax -9.17643 -0.0911513 0.370284
lowerneck -29.1893 3.3884 -1.02192
upperneck 30.9055 7.19201 -5.48994
head 16.1559 1.83207 -0.665957
rclavicle -1.63003e-014 -1.70955e-014
rhumerus -25.4404 -1.04344 -86.8617
rradius 80.1065
rwrist -17.2157
rhand -13.3174 -27.2005
rfingers 7.12502
rthumb 12.7873 -56.7889
lclavicle -1.63003e-014 -1.70955e-014
lhumerus -10.3937 -16.0888 89.5852
lradius 74.5276
lwrist 13.0342
lhand -25.1684 -15.5914
lfingers 7.12502
lthumb 1.34895 14.384
rfemur -29.9522 -12.4014 5.92606
rtibia 47.277
rfoot -17.8966 -5.06047
rtoes -7.98509
lfemur -31.2244 11.2544 -15.2762
ltibia 44.5673
lfoot -14.5523 5.43176
ltoes -3.14816
682
root 6.93372 15.9904 -2.01094 -119.815 -82.4785 125.728
lowerback 31.0204 1.5473 -2.83108
upperback 6.93533 0.262531 -0.980272
thorax -9.18714 -0.119273 0.478282
lowerneck -29.1934 3.47335 -1.0039
upperneck 31.025 7.3059 -5.46807
head 16.2178 1.87809 -0.635946
rclavicle 7.7526e-015 3.57812e-015
rhumerus -25.3153 -1.06525 -86.8042
rradius 80.0135
rwrist -17.2201
rhand -13.5215 -26.8722
rfingers 7.12502
rthumb 12.5905 -56.4728
lclavicle 7.7526e-015 3.57812e-015
lhumerus -10.2986 -16.0952 89.5746
lradius 74.3312
lwrist 13.0522
lhand -25.0445 -15.7739
lfingers 7.12502
lthumb 1.46854 14.2008
rfemur -30.2003 -12.5641 5.90142
rtibia 47.5948
rfoot -18.0267 -5.03797
rtoes -7.85199
lfemur -31.2577 11.3466 -15.3565
ltibia 44.4092
lfoot -14.288 5.31644
ltoes -3.42529
683
root 6.93857 15.9858 -2.04604 -119.714 -82.4116 125.592
lowerback 31.2494 1.53683 -2.72535
upperback 6.78858 0.276285 -1.00912
thorax -9.46515 -0.107533 0.376839
lowerneck -29.0658 3.53226 -1.07098
upperneck 31.2774 7.36087 -5.28576
head 16.2987 1.91045 -0.538497
rclavicle 6.36111e-015 1.90833e-014
rhumerus -25.6852 -1.18842 -86.7697
rradius 80.1276
rwrist -17.2023
rhand -13.4502 -26.6231
rfingers 7.12502
rthumb 12.6592 -56.2194
lclavicle 6.36111e-015 1.90833e-014
lhumerus -10.6179 -16.2341 89.6355
lradius 74.242
lwrist 12.7586
lhand -24.9673 -15.5842
lfingers 7.12502
lthumb 1.54312 14.3899
rfemur -30.3329 -12.7915 5.98937
rtibia 47.8635
rfoot -18.1648 -4.81547
rtoes -7.29879
lfemur -31.1496 11.435 -15.3016
ltibia 44.2818
lfoot -14.2047 5.30093
ltoes -3.87764
684
root 6.9421 15.9818 -2.08163 -120.179 -82.3693 126.048
lowerback 31.4204 1.51483 -2.63296
upperback 6.65389 0.272711 -1.04545
thorax -9.70153 -0.104866 0.28129
lowerneck -28.906 3.65174 -1.00326
upperneck 31.4309 7.45951 -5.17373
head 16.3357 1.97211 -0.483196
rclavicle 5.1684e-015 -7.55382e-015
rhumerus -26.1089 -1.19294 -86.8264
rradius 80.3445
rwrist -17.1366
rhand -13.3316 -26.6915
rfingers 7.12502
rthumb 12.7736 -56.2808
lclavicle 5.1684e-015 -7.55382e-015
lhumerus -10.9627 -16.319 89.6077
lradius 74.2646
lwrist 12.6715
lhand -24.786 -15.1725
lfingers 7.12502
lthumb 1.71828 14.8003
rfemur -30.5177 -12.934 6.15348
rtibia 48.1579
rfoot -18.3115 -4.5849
rtoes -7.08
lfemur -31.1022 11.575 -15.1707
ltibia 44.2645
lfoot -14.1663 5.28076
ltoes -4.2213
685
root 6.95218 15.9724 -2.11919 -120.417 -82.4004 126.306
lowerback 31.4627 1.47384 -2.55408
upperback 6.63889 0.247279 -1.02419
thorax -9.73822 -0.117536 0.269241
lowerneck -28.8795 3.8214 -0.811172
upperneck 31.5451 7.67271 -5.31376
head 16.4109 2.05468 -0.530852
rclavicle 1.78906e-014 -1.15295e-014
rhumerus -26.2063 -1.12491 -86.8526
rradius 80.4465
rwrist -17.0572
rhand -13.4634 -26.6529
rfingers 7.12502
rthumb 12.6465 -56.25
lclavicle 1.78906e-014 -1.15295e-014
lhumerus -11.047 -16.3599 89.5604
lradius 74.2056
lwrist 12.7416
lhand -24.6439 -14.86
lfingers 7.12502
lthumb 1.85544 15.1117
rfemur -30.7043 -12.9999 6.40506
rtibia 48.3716
rfoot -18.3735 -4.16601
rtoes -6.44971
lfemur -31.2285 11.715 -14.9747
ltibia 44.3723
lfoot -14.1243 5.16544
ltoes -4.01026
